<?xml version="1.0" encoding="utf-8"?>
<!-- Generator: Adobe Illustrator 25.4.2, SVG Export Plug-In . SVG Version: 6.00 Build 0)  -->
<svg version="1.1" id="Layer_1" xmlns="http://www.w3.org/2000/svg" xmlns:xlink="http://www.w3.org/1999/xlink" x="0px" y="0px"
	 width="3840.73px" height="4308.41px" viewBox="0 0 3840.73 4308.41" style="enable-background:new 0 0 3840.73 4308.41;"
	 xml:space="preserve">
<style type="text/css">
	.st0{fill-rule:evenodd;clip-rule:evenodd;}
</style>
<g>
	<g id="Layer_2_00000095339126184934038940000006359195947499462331_">
		<path class="st0" d="M431.17,289.62c12.71,0,15.14,7.27,24.7,7.27c2.97,0,7.75,0.36,7.75-8.72v-75.32c0-1.34-1.08-2.42-2.42-2.42
			h-80.84c-4.98,0-8.23,5.67-8.23,8.72c0,9,13.56,10.07,13.56,23.73c0,19.77-10.94,31.48-29.55,31.48
			c-19.08,0-31.97-12.34-31.97-31.48c0-12.71,7.27-15.14,7.27-24.7c0-2.97,0.36-7.75-8.72-7.75h-98.86c-1.34,0-2.42,1.08-2.42,2.42
			v80.65c0,4.98,5.67,8.23,8.72,8.23c9,0,10.07-13.56,23.73-13.56c19.77,0,31.48,10.94,31.48,29.55c0,19.08-12.34,31.97-31.48,31.97
			c-12.71,0-15.14-7.27-24.7-7.27c-2.97,0-7.75-0.36-7.75,8.72v50.62c0,1.34,1.08,2.42,2.42,2.42h104.19c4.98,0,8.23-5.67,8.23-8.72
			c0-9-13.56-10.07-13.56-23.73c0-19.77,10.94-31.48,29.55-31.48c19.08,0,31.97,12.34,31.97,31.48c0,12.71-7.27,15.14-7.27,24.7
			c0,2.97-0.36,7.75,8.72,7.75h75.51c1.34,0,2.42-1.08,2.42-2.42v-55.94c0-4.98-5.67-8.23-8.72-8.23c-9,0-10.07,13.56-23.73,13.56
			c-19.77,0-31.48-10.94-31.48-29.55C399.68,302.5,412.03,289.62,431.17,289.62z"/>
	</g>
</g>
<g>
	<g id="Layer_2_00000037694737162482375890000004860687516892043698_">
		<path class="st0" d="M673.17,483.62c12.71,0,15.14,7.27,24.7,7.27c2.97,0,7.75,0.36,7.75-8.72v-75.32c0-1.34-1.08-2.42-2.42-2.42
			h-80.84c-4.98,0-8.23,5.67-8.23,8.72c0,9,13.56,10.07,13.56,23.73c0,19.77-10.94,31.48-29.55,31.48
			c-19.08,0-31.97-12.34-31.97-31.48c0-12.71,7.27-15.14,7.27-24.7c0-2.97,0.36-7.75-8.72-7.75h-98.86c-1.34,0-2.42,1.08-2.42,2.42
			v80.65c0,4.98,5.67,8.23,8.72,8.23c9,0,10.07-13.56,23.73-13.56c19.77,0,31.48,10.94,31.48,29.55c0,19.08-12.34,31.97-31.48,31.97
			c-12.71,0-15.14-7.27-24.7-7.27c-2.97,0-7.75-0.36-7.75,8.72v50.62c0,1.34,1.08,2.42,2.42,2.42h104.19c4.98,0,8.23-5.67,8.23-8.72
			c0-9-13.56-10.07-13.56-23.73c0-19.77,10.94-31.48,29.55-31.48c19.08,0,31.97,12.34,31.97,31.48c0,12.71-7.27,15.14-7.27,24.7
			c0,2.97-0.36,7.75,8.72,7.75h75.51c1.34,0,2.42-1.08,2.42-2.42v-55.94c0-4.98-5.67-8.23-8.72-8.23c-9,0-10.07,13.56-23.73,13.56
			c-19.77,0-31.48-10.94-31.48-29.55C641.68,496.5,654.03,483.62,673.17,483.62z"/>
	</g>
</g>
<g>
	<g id="Layer_2_00000041257335001483091630000004004122424880781976_">
		<path class="st0" d="M915.17,677.62c12.71,0,15.14,7.27,24.7,7.27c2.97,0,7.75,0.36,7.75-8.72v-75.32c0-1.34-1.08-2.42-2.42-2.42
			h-80.84c-4.98,0-8.23,5.67-8.23,8.72c0,9,13.56,10.07,13.56,23.73c0,19.77-10.94,31.48-29.55,31.48
			c-19.08,0-31.97-12.34-31.97-31.48c0-12.71,7.27-15.14,7.27-24.7c0-2.97,0.36-7.75-8.72-7.75h-98.86c-1.34,0-2.42,1.08-2.42,2.42
			v80.65c0,4.98,5.67,8.23,8.72,8.23c9,0,10.07-13.56,23.73-13.56c19.77,0,31.48,10.94,31.48,29.55c0,19.08-12.34,31.97-31.48,31.97
			c-12.71,0-15.14-7.27-24.7-7.27c-2.97,0-7.75-0.36-7.75,8.72v50.62c0,1.34,1.08,2.42,2.42,2.42h104.19c4.98,0,8.23-5.67,8.23-8.72
			c0-9-13.56-10.07-13.56-23.73c0-19.77,10.94-31.48,29.55-31.48c19.08,0,31.97,12.34,31.97,31.48c0,12.71-7.27,15.14-7.27,24.7
			c0,2.97-0.36,7.75,8.72,7.75h75.51c1.34,0,2.42-1.08,2.42-2.42v-55.94c0-4.98-5.67-8.23-8.72-8.23c-9,0-10.07,13.56-23.73,13.56
			c-19.77,0-31.48-10.94-31.48-29.55C883.68,690.5,896.03,677.62,915.17,677.62z"/>
	</g>
</g>
<g>
	<g id="Layer_2_00000013165166584810841860000018108622055114116016_">
		<path class="st0" d="M1157.17,871.62c12.71,0,15.14,7.27,24.7,7.27c2.97,0,7.75,0.36,7.75-8.72v-75.32c0-1.34-1.08-2.42-2.42-2.42
			h-80.84c-4.98,0-8.23,5.67-8.23,8.72c0,9,13.56,10.07,13.56,23.73c0,19.77-10.94,31.48-29.55,31.48
			c-19.08,0-31.97-12.34-31.97-31.48c0-12.71,7.27-15.14,7.27-24.7c0-2.97,0.36-7.75-8.72-7.75h-98.86c-1.34,0-2.42,1.08-2.42,2.42
			v80.65c0,4.98,5.67,8.23,8.72,8.23c9,0,10.07-13.56,23.73-13.56c19.77,0,31.48,10.94,31.48,29.55c0,19.08-12.34,31.97-31.48,31.97
			c-12.71,0-15.14-7.27-24.7-7.27c-2.97,0-7.75-0.36-7.75,8.72v50.62c0,1.34,1.08,2.42,2.42,2.42h104.19c4.98,0,8.23-5.67,8.23-8.72
			c0-9-13.56-10.07-13.56-23.73c0-19.77,10.94-31.48,29.55-31.48c19.08,0,31.97,12.34,31.97,31.48c0,12.71-7.27,15.14-7.27,24.7
			c0,2.97-0.36,7.75,8.72,7.75h75.51c1.34,0,2.42-1.08,2.42-2.42v-55.94c0-4.98-5.67-8.23-8.72-8.23c-9,0-10.07,13.56-23.73,13.56
			c-19.77,0-31.48-10.94-31.48-29.55C1125.68,884.5,1138.03,871.62,1157.17,871.62z"/>
	</g>
</g>
<g>
	<g id="Layer_2_00000092428553084172472780000013058865655149583775_">
		<path class="st0" d="M1399.17,1065.62c12.71,0,15.14,7.27,24.7,7.27c2.97,0,7.75,0.36,7.75-8.72v-75.32
			c0-1.34-1.08-2.42-2.42-2.42h-80.84c-4.98,0-8.23,5.67-8.23,8.72c0,9,13.56,10.07,13.56,23.73c0,19.77-10.94,31.48-29.55,31.48
			c-19.08,0-31.97-12.34-31.97-31.48c0-12.71,7.27-15.14,7.27-24.7c0-2.97,0.36-7.75-8.72-7.75h-98.86c-1.34,0-2.42,1.08-2.42,2.42
			v80.65c0,4.98,5.67,8.23,8.72,8.23c9,0,10.07-13.56,23.73-13.56c19.77,0,31.48,10.94,31.48,29.55c0,19.08-12.34,31.97-31.48,31.97
			c-12.71,0-15.14-7.27-24.7-7.27c-2.97,0-7.75-0.36-7.75,8.72v50.62c0,1.34,1.08,2.42,2.42,2.42h104.19c4.98,0,8.23-5.67,8.23-8.72
			c0-9-13.56-10.07-13.56-23.73c0-19.77,10.94-31.48,29.55-31.48c19.08,0,31.97,12.34,31.97,31.48c0,12.71-7.27,15.14-7.27,24.7
			c0,2.97-0.36,7.75,8.72,7.75h75.51c1.34,0,2.42-1.08,2.42-2.42v-55.94c0-4.98-5.67-8.23-8.72-8.23c-9,0-10.07,13.56-23.73,13.56
			c-19.77,0-31.48-10.94-31.48-29.55C1367.68,1078.5,1380.03,1065.62,1399.17,1065.62z"/>
	</g>
</g>
<g>
	<g id="Layer_2_00000090973198210622378980000016512598195717254066_">
		<path class="st0" d="M1641.17,1259.62c12.71,0,15.14,7.27,24.7,7.27c2.97,0,7.75,0.36,7.75-8.72v-75.32
			c0-1.34-1.08-2.42-2.42-2.42h-80.84c-4.98,0-8.23,5.67-8.23,8.72c0,9,13.56,10.07,13.56,23.73c0,19.77-10.94,31.48-29.55,31.48
			c-19.08,0-31.97-12.34-31.97-31.48c0-12.71,7.27-15.14,7.27-24.7c0-2.97,0.36-7.75-8.72-7.75h-98.86c-1.34,0-2.42,1.08-2.42,2.42
			v80.65c0,4.98,5.67,8.23,8.72,8.23c9,0,10.07-13.56,23.73-13.56c19.77,0,31.48,10.94,31.48,29.55c0,19.08-12.34,31.97-31.48,31.97
			c-12.71,0-15.14-7.27-24.7-7.27c-2.97,0-7.75-0.36-7.75,8.72v50.62c0,1.34,1.08,2.42,2.42,2.42h104.19c4.98,0,8.23-5.67,8.23-8.72
			c0-9-13.56-10.07-13.56-23.73c0-19.77,10.94-31.48,29.55-31.48c19.08,0,31.97,12.34,31.97,31.48c0,12.71-7.27,15.14-7.27,24.7
			c0,2.97-0.36,7.75,8.72,7.75h75.51c1.34,0,2.42-1.08,2.42-2.42v-55.94c0-4.98-5.67-8.23-8.72-8.23c-9,0-10.07,13.56-23.73,13.56
			c-19.77,0-31.48-10.94-31.48-29.55C1609.68,1272.5,1622.03,1259.62,1641.17,1259.62z"/>
	</g>
</g>
<g>
	<g id="Layer_2_00000114058372610573023930000014679054055212517262_">
		<path class="st0" d="M1883.17,1453.62c12.71,0,15.14,7.27,24.7,7.27c2.97,0,7.75,0.36,7.75-8.72v-75.32
			c0-1.34-1.08-2.42-2.42-2.42h-80.84c-4.98,0-8.23,5.67-8.23,8.72c0,9,13.56,10.07,13.56,23.73c0,19.77-10.94,31.48-29.55,31.48
			c-19.08,0-31.97-12.34-31.97-31.48c0-12.71,7.27-15.14,7.27-24.7c0-2.97,0.36-7.75-8.72-7.75h-98.86c-1.34,0-2.42,1.08-2.42,2.42
			v80.65c0,4.98,5.67,8.23,8.72,8.23c9,0,10.07-13.56,23.73-13.56c19.77,0,31.48,10.94,31.48,29.55c0,19.08-12.34,31.97-31.48,31.97
			c-12.71,0-15.14-7.27-24.7-7.27c-2.97,0-7.75-0.36-7.75,8.72v50.62c0,1.34,1.08,2.42,2.42,2.42h104.19c4.98,0,8.23-5.67,8.23-8.72
			c0-9-13.56-10.07-13.56-23.73c0-19.77,10.94-31.48,29.55-31.48c19.08,0,31.97,12.34,31.97,31.48c0,12.71-7.27,15.14-7.27,24.7
			c0,2.97-0.36,7.75,8.72,7.75h75.51c1.34,0,2.42-1.08,2.42-2.42v-55.94c0-4.98-5.67-8.23-8.72-8.23c-9,0-10.07,13.56-23.73,13.56
			c-19.77,0-31.48-10.94-31.48-29.55C1851.68,1466.5,1864.03,1453.62,1883.17,1453.62z"/>
	</g>
</g>
<g>
	<g id="Layer_2_00000134963740902697788560000016593199208890166957_">
		<path class="st0" d="M2125.17,1647.62c12.71,0,15.14,7.27,24.7,7.27c2.97,0,7.75,0.36,7.75-8.72v-75.32
			c0-1.34-1.08-2.42-2.42-2.42h-80.84c-4.98,0-8.23,5.67-8.23,8.72c0,9,13.56,10.07,13.56,23.73c0,19.77-10.94,31.48-29.55,31.48
			c-19.08,0-31.97-12.34-31.97-31.48c0-12.71,7.27-15.14,7.27-24.7c0-2.97,0.36-7.75-8.72-7.75h-98.86c-1.34,0-2.42,1.08-2.42,2.42
			v80.65c0,4.98,5.67,8.23,8.72,8.23c9,0,10.07-13.56,23.73-13.56c19.77,0,31.48,10.94,31.48,29.55c0,19.08-12.34,31.97-31.48,31.97
			c-12.71,0-15.14-7.27-24.7-7.27c-2.97,0-7.75-0.36-7.75,8.72v50.62c0,1.34,1.08,2.42,2.42,2.42h104.19c4.98,0,8.23-5.67,8.23-8.72
			c0-9-13.56-10.07-13.56-23.73c0-19.77,10.94-31.48,29.55-31.48c19.08,0,31.97,12.34,31.97,31.48c0,12.71-7.27,15.14-7.27,24.7
			c0,2.97-0.36,7.75,8.72,7.75h75.51c1.34,0,2.42-1.08,2.42-2.42v-55.94c0-4.98-5.67-8.23-8.72-8.23c-9,0-10.07,13.56-23.73,13.56
			c-19.77,0-31.48-10.94-31.48-29.55C2093.69,1660.5,2106.03,1647.62,2125.17,1647.62z"/>
	</g>
</g>
<g>
	<g id="Layer_2_00000085946660239650709210000007494356674437336215_">
		<path class="st0" d="M2367.17,1841.62c12.71,0,15.14,7.27,24.7,7.27c2.97,0,7.75,0.36,7.75-8.72v-75.32
			c0-1.34-1.08-2.42-2.42-2.42h-80.84c-4.98,0-8.23,5.67-8.23,8.72c0,9,13.56,10.07,13.56,23.73c0,19.77-10.94,31.48-29.55,31.48
			c-19.08,0-31.97-12.34-31.97-31.48c0-12.71,7.27-15.14,7.27-24.7c0-2.97,0.36-7.75-8.72-7.75h-98.86c-1.34,0-2.42,1.08-2.42,2.42
			v80.65c0,4.98,5.67,8.23,8.72,8.23c9,0,10.07-13.56,23.73-13.56c19.77,0,31.48,10.94,31.48,29.55c0,19.08-12.34,31.97-31.48,31.97
			c-12.71,0-15.14-7.27-24.7-7.27c-2.97,0-7.75-0.36-7.75,8.72v50.62c0,1.34,1.08,2.42,2.42,2.42h104.19c4.98,0,8.23-5.67,8.23-8.72
			c0-9-13.56-10.07-13.56-23.73c0-19.77,10.94-31.48,29.55-31.48c19.08,0,31.97,12.34,31.97,31.48c0,12.71-7.27,15.14-7.27,24.7
			c0,2.97-0.36,7.75,8.72,7.75h75.51c1.34,0,2.42-1.08,2.42-2.42v-55.94c0-4.98-5.67-8.23-8.72-8.23c-9,0-10.07,13.56-23.73,13.56
			c-19.77,0-31.48-10.94-31.48-29.55C2335.69,1854.5,2348.03,1841.62,2367.17,1841.62z"/>
	</g>
</g>
<g>
	<g id="Layer_2_00000114031147948293733010000013280587556066862724_">
		<path class="st0" d="M2609.17,2035.62c12.71,0,15.14,7.27,24.7,7.27c2.97,0,7.75,0.36,7.75-8.72v-75.32
			c0-1.34-1.08-2.42-2.42-2.42h-80.84c-4.98,0-8.23,5.67-8.23,8.72c0,9,13.56,10.07,13.56,23.73c0,19.77-10.94,31.48-29.55,31.48
			c-19.08,0-31.97-12.34-31.97-31.48c0-12.71,7.27-15.14,7.27-24.7c0-2.97,0.36-7.75-8.72-7.75h-98.86c-1.34,0-2.42,1.08-2.42,2.42
			v80.65c0,4.98,5.67,8.23,8.72,8.23c9,0,10.07-13.56,23.73-13.56c19.77,0,31.48,10.94,31.48,29.55c0,19.08-12.34,31.97-31.48,31.97
			c-12.71,0-15.14-7.27-24.7-7.27c-2.97,0-7.75-0.36-7.75,8.72v50.62c0,1.34,1.08,2.42,2.42,2.42h104.19c4.98,0,8.23-5.67,8.23-8.72
			c0-9-13.56-10.07-13.56-23.73c0-19.77,10.94-31.48,29.55-31.48c19.08,0,31.97,12.34,31.97,31.48c0,12.71-7.27,15.14-7.27,24.7
			c0,2.97-0.36,7.75,8.72,7.75h75.51c1.34,0,2.42-1.08,2.42-2.42v-55.94c0-4.98-5.67-8.23-8.72-8.23c-9,0-10.07,13.56-23.73,13.56
			c-19.77,0-31.48-10.94-31.48-29.55C2577.69,2048.5,2590.03,2035.62,2609.17,2035.62z"/>
	</g>
</g>
<g>
	<g id="Layer_2_00000009572068663994371700000010222863781137392022_">
		<path class="st0" d="M2851.17,2229.62c12.71,0,15.14,7.27,24.7,7.27c2.97,0,7.75,0.36,7.75-8.72v-75.32
			c0-1.34-1.08-2.42-2.42-2.42h-80.84c-4.98,0-8.23,5.67-8.23,8.72c0,9,13.56,10.07,13.56,23.73c0,19.77-10.94,31.48-29.55,31.48
			c-19.08,0-31.97-12.34-31.97-31.48c0-12.71,7.27-15.14,7.27-24.7c0-2.97,0.36-7.75-8.72-7.75h-98.86c-1.34,0-2.42,1.08-2.42,2.42
			v80.65c0,4.98,5.67,8.23,8.72,8.23c9,0,10.07-13.56,23.73-13.56c19.77,0,31.48,10.94,31.48,29.55c0,19.08-12.34,31.97-31.48,31.97
			c-12.71,0-15.14-7.27-24.7-7.27c-2.97,0-7.75-0.36-7.75,8.72v50.62c0,1.34,1.08,2.42,2.42,2.42h104.19c4.98,0,8.23-5.67,8.23-8.72
			c0-9-13.56-10.07-13.56-23.73c0-19.77,10.94-31.48,29.55-31.48c19.08,0,31.97,12.34,31.97,31.48c0,12.71-7.27,15.14-7.27,24.7
			c0,2.97-0.36,7.75,8.72,7.75h75.51c1.34,0,2.42-1.08,2.42-2.42v-55.94c0-4.98-5.67-8.23-8.72-8.23c-9,0-10.07,13.56-23.73,13.56
			c-19.77,0-31.48-10.94-31.48-29.55C2819.69,2242.5,2832.03,2229.62,2851.17,2229.62z"/>
	</g>
</g>
<g>
	<g id="Layer_2_00000117642225765596906400000017741893951173110707_">
		<path class="st0" d="M3093.17,2423.62c12.71,0,15.14,7.27,24.7,7.27c2.97,0,7.75,0.36,7.75-8.72v-75.32
			c0-1.34-1.08-2.42-2.42-2.42h-80.84c-4.98,0-8.23,5.67-8.23,8.72c0,9,13.56,10.07,13.56,23.73c0,19.77-10.94,31.48-29.55,31.48
			c-19.08,0-31.97-12.34-31.97-31.48c0-12.71,7.27-15.14,7.27-24.7c0-2.97,0.36-7.75-8.72-7.75h-98.86c-1.34,0-2.42,1.08-2.42,2.42
			v80.65c0,4.98,5.67,8.23,8.72,8.23c9,0,10.07-13.56,23.73-13.56c19.77,0,31.48,10.94,31.48,29.55c0,19.08-12.34,31.97-31.48,31.97
			c-12.71,0-15.14-7.27-24.7-7.27c-2.97,0-7.75-0.36-7.75,8.72v50.62c0,1.34,1.08,2.42,2.42,2.42h104.19c4.98,0,8.23-5.67,8.23-8.72
			c0-9-13.56-10.07-13.56-23.73c0-19.77,10.94-31.48,29.55-31.48c19.08,0,31.97,12.34,31.97,31.48c0,12.71-7.27,15.14-7.27,24.7
			c0,2.97-0.36,7.75,8.72,7.75h75.51c1.34,0,2.42-1.08,2.42-2.42v-55.94c0-4.98-5.67-8.23-8.72-8.23c-9,0-10.07,13.56-23.73,13.56
			c-19.77,0-31.48-10.94-31.48-29.55C3061.69,2436.5,3074.03,2423.62,3093.17,2423.62z"/>
	</g>
</g>
<g>
	<g id="Layer_2_00000091715641279147655860000003555887187227794069_">
		<path class="st0" d="M3335.17,2617.62c12.71,0,15.14,7.27,24.7,7.27c2.97,0,7.75,0.36,7.75-8.72v-75.32
			c0-1.34-1.08-2.42-2.42-2.42h-80.84c-4.98,0-8.23,5.67-8.23,8.72c0,9,13.56,10.07,13.56,23.73c0,19.77-10.94,31.48-29.55,31.48
			c-19.08,0-31.97-12.34-31.97-31.48c0-12.71,7.27-15.14,7.27-24.7c0-2.97,0.36-7.75-8.72-7.75h-98.86c-1.34,0-2.42,1.08-2.42,2.42
			v80.65c0,4.98,5.67,8.23,8.72,8.23c9,0,10.07-13.56,23.73-13.56c19.77,0,31.48,10.94,31.48,29.55c0,19.08-12.34,31.97-31.48,31.97
			c-12.71,0-15.14-7.27-24.7-7.27c-2.97,0-7.75-0.36-7.75,8.72v50.62c0,1.34,1.08,2.42,2.42,2.42h104.19c4.98,0,8.23-5.67,8.23-8.72
			c0-9-13.56-10.07-13.56-23.73c0-19.77,10.94-31.48,29.55-31.48c19.08,0,31.97,12.34,31.97,31.48c0,12.71-7.27,15.14-7.27,24.7
			c0,2.97-0.36,7.75,8.72,7.75h75.51c1.34,0,2.42-1.08,2.42-2.42v-55.94c0-4.98-5.67-8.23-8.72-8.23c-9,0-10.07,13.56-23.73,13.56
			c-19.77,0-31.48-10.94-31.48-29.55C3303.69,2630.5,3316.03,2617.62,3335.17,2617.62z"/>
	</g>
</g>
<g>
	<g id="Layer_2_00000005965134412310009170000003805970406765197487_">
		<path class="st0" d="M3577.17,2811.62c12.71,0,15.14,7.27,24.7,7.27c2.97,0,7.75,0.36,7.75-8.72v-75.32
			c0-1.34-1.08-2.42-2.42-2.42h-80.84c-4.98,0-8.23,5.67-8.23,8.72c0,9,13.56,10.07,13.56,23.73c0,19.77-10.94,31.48-29.55,31.48
			c-19.08,0-31.97-12.34-31.97-31.48c0-12.71,7.27-15.14,7.27-24.7c0-2.97,0.36-7.75-8.72-7.75h-98.86c-1.34,0-2.42,1.08-2.42,2.42
			v80.65c0,4.98,5.67,8.23,8.72,8.23c9,0,10.07-13.56,23.73-13.56c19.77,0,31.48,10.94,31.48,29.55c0,19.08-12.34,31.97-31.48,31.97
			c-12.71,0-15.14-7.27-24.7-7.27c-2.97,0-7.75-0.36-7.75,8.72v50.62c0,1.34,1.08,2.42,2.42,2.42h104.19c4.98,0,8.23-5.67,8.23-8.72
			c0-9-13.56-10.07-13.56-23.73c0-19.77,10.94-31.48,29.55-31.48c19.08,0,31.97,12.34,31.97,31.48c0,12.71-7.27,15.14-7.27,24.7
			c0,2.97-0.36,7.75,8.72,7.75h75.51c1.34,0,2.42-1.08,2.42-2.42v-55.94c0-4.98-5.67-8.23-8.72-8.23c-9,0-10.07,13.56-23.73,13.56
			c-19.77,0-31.48-10.94-31.48-29.55C3545.69,2824.5,3558.03,2811.62,3577.17,2811.62z"/>
	</g>
</g>
<g>
	<g id="Layer_2_00000109715160175758910000000014840173546494542480_">
		<path class="st0" d="M3819.17,3005.62c12.71,0,15.14,7.27,24.7,7.27c2.97,0,7.75,0.36,7.75-8.72v-75.32
			c0-1.34-1.08-2.42-2.42-2.42h-80.84c-4.98,0-8.23,5.67-8.23,8.72c0,9,13.56,10.07,13.56,23.73c0,19.77-10.94,31.48-29.55,31.48
			c-19.08,0-31.97-12.34-31.97-31.48c0-12.71,7.27-15.14,7.27-24.7c0-2.97,0.36-7.75-8.72-7.75h-98.86c-1.34,0-2.42,1.08-2.42,2.42
			v80.65c0,4.98,5.67,8.23,8.72,8.23c9,0,10.07-13.56,23.73-13.56c19.77,0,31.48,10.94,31.48,29.55c0,19.08-12.34,31.97-31.48,31.97
			c-12.71,0-15.14-7.27-24.7-7.27c-2.97,0-7.75-0.36-7.75,8.72v50.62c0,1.34,1.08,2.42,2.42,2.42h104.19c4.98,0,8.23-5.67,8.23-8.72
			c0-9-13.56-10.07-13.56-23.73c0-19.77,10.94-31.48,29.55-31.48c19.08,0,31.97,12.34,31.97,31.48c0,12.71-7.27,15.14-7.27,24.7
			c0,2.97-0.36,7.75,8.72,7.75h75.51c1.34,0,2.42-1.08,2.42-2.42v-55.94c0-4.98-5.67-8.23-8.72-8.23c-9,0-10.07,13.56-23.73,13.56
			c-19.77,0-31.48-10.94-31.48-29.55C3787.69,3018.5,3800.03,3005.62,3819.17,3005.62z"/>
	</g>
</g>
<g>
	<g id="Layer_2_00000022526609563321983320000018207427707174692496_">
		<path class="st0" d="M3577.17,3199.62c12.71,0,15.14,7.27,24.7,7.27c2.97,0,7.75,0.36,7.75-8.72v-75.32
			c0-1.34-1.08-2.42-2.42-2.42h-80.84c-4.98,0-8.23,5.67-8.23,8.72c0,9,13.56,10.07,13.56,23.73c0,19.77-10.94,31.48-29.55,31.48
			c-19.08,0-31.97-12.34-31.97-31.48c0-12.71,7.27-15.14,7.27-24.7c0-2.97,0.36-7.75-8.72-7.75h-98.86c-1.34,0-2.42,1.08-2.42,2.42
			v80.65c0,4.98,5.67,8.23,8.72,8.23c9,0,10.07-13.56,23.73-13.56c19.77,0,31.48,10.94,31.48,29.55c0,19.08-12.34,31.97-31.48,31.97
			c-12.71,0-15.14-7.27-24.7-7.27c-2.97,0-7.75-0.36-7.75,8.72v50.62c0,1.34,1.08,2.42,2.42,2.42h104.19c4.98,0,8.23-5.67,8.23-8.72
			c0-9-13.56-10.07-13.56-23.73c0-19.77,10.94-31.48,29.55-31.48c19.08,0,31.97,12.34,31.97,31.48c0,12.71-7.27,15.14-7.27,24.7
			c0,2.97-0.36,7.75,8.72,7.75h75.51c1.34,0,2.42-1.08,2.42-2.42v-55.94c0-4.98-5.67-8.23-8.72-8.23c-9,0-10.07,13.56-23.73,13.56
			c-19.77,0-31.48-10.94-31.48-29.55C3545.69,3212.5,3558.03,3199.62,3577.17,3199.62z"/>
	</g>
</g>
<g>
	<g id="Layer_2_00000007424751432485806300000000225675189768593814_">
		<path class="st0" d="M3335.17,3393.62c12.71,0,15.14,7.27,24.7,7.27c2.97,0,7.75,0.36,7.75-8.72v-75.32
			c0-1.34-1.08-2.42-2.42-2.42h-80.84c-4.98,0-8.23,5.67-8.23,8.72c0,9,13.56,10.07,13.56,23.73c0,19.77-10.94,31.48-29.55,31.48
			c-19.08,0-31.97-12.34-31.97-31.48c0-12.71,7.27-15.14,7.27-24.7c0-2.97,0.36-7.75-8.72-7.75h-98.86c-1.34,0-2.42,1.08-2.42,2.42
			v80.65c0,4.98,5.67,8.23,8.72,8.23c9,0,10.07-13.56,23.73-13.56c19.77,0,31.48,10.94,31.48,29.55c0,19.08-12.34,31.97-31.48,31.97
			c-12.71,0-15.14-7.27-24.7-7.27c-2.97,0-7.75-0.36-7.75,8.72v50.62c0,1.34,1.08,2.42,2.42,2.42h104.19c4.98,0,8.23-5.67,8.23-8.72
			c0-9-13.56-10.07-13.56-23.73c0-19.77,10.94-31.48,29.55-31.48c19.08,0,31.97,12.34,31.97,31.48c0,12.71-7.27,15.14-7.27,24.7
			c0,2.97-0.36,7.75,8.72,7.75h75.51c1.34,0,2.42-1.08,2.42-2.42v-55.94c0-4.98-5.67-8.23-8.72-8.23c-9,0-10.07,13.56-23.73,13.56
			c-19.77,0-31.48-10.94-31.48-29.55C3303.69,3406.5,3316.03,3393.62,3335.17,3393.62z"/>
	</g>
</g>
<g>
	<g id="Layer_2_00000024703379050423074980000007727739580340820634_">
		<path class="st0" d="M3093.17,3587.62c12.71,0,15.14,7.27,24.7,7.27c2.97,0,7.75,0.36,7.75-8.72v-75.32
			c0-1.34-1.08-2.42-2.42-2.42h-80.84c-4.98,0-8.23,5.67-8.23,8.72c0,9,13.56,10.07,13.56,23.73c0,19.77-10.94,31.48-29.55,31.48
			c-19.08,0-31.97-12.34-31.97-31.48c0-12.71,7.27-15.14,7.27-24.7c0-2.97,0.36-7.75-8.72-7.75h-98.86c-1.34,0-2.42,1.08-2.42,2.42
			v80.65c0,4.98,5.67,8.23,8.72,8.23c9,0,10.07-13.56,23.73-13.56c19.77,0,31.48,10.94,31.48,29.55c0,19.08-12.34,31.97-31.48,31.97
			c-12.71,0-15.14-7.27-24.7-7.27c-2.97,0-7.75-0.36-7.75,8.72v50.62c0,1.34,1.08,2.42,2.42,2.42h104.19c4.98,0,8.23-5.67,8.23-8.72
			c0-9-13.56-10.07-13.56-23.73c0-19.77,10.94-31.48,29.55-31.48c19.08,0,31.97,12.34,31.97,31.48c0,12.71-7.27,15.14-7.27,24.7
			c0,2.97-0.36,7.75,8.72,7.75h75.51c1.34,0,2.42-1.08,2.42-2.42v-55.94c0-4.98-5.67-8.23-8.72-8.23c-9,0-10.07,13.56-23.73,13.56
			c-19.77,0-31.48-10.94-31.48-29.55C3061.69,3600.5,3074.03,3587.62,3093.17,3587.62z"/>
	</g>
</g>
<g>
	<g id="Layer_2_00000093860412076699918040000002150870302142560435_">
		<path class="st0" d="M2851.17,3781.62c12.71,0,15.14,7.27,24.7,7.27c2.97,0,7.75,0.36,7.75-8.72v-75.32
			c0-1.34-1.08-2.42-2.42-2.42h-80.84c-4.98,0-8.23,5.67-8.23,8.72c0,9,13.56,10.07,13.56,23.73c0,19.77-10.94,31.48-29.55,31.48
			c-19.08,0-31.97-12.34-31.97-31.48c0-12.71,7.27-15.14,7.27-24.7c0-2.97,0.36-7.75-8.72-7.75h-98.86c-1.34,0-2.42,1.08-2.42,2.42
			v80.65c0,4.98,5.67,8.23,8.72,8.23c9,0,10.07-13.56,23.73-13.56c19.77,0,31.48,10.94,31.48,29.55c0,19.08-12.34,31.97-31.48,31.97
			c-12.71,0-15.14-7.27-24.7-7.27c-2.97,0-7.75-0.36-7.75,8.72v50.62c0,1.34,1.08,2.42,2.42,2.42h104.19c4.98,0,8.23-5.67,8.23-8.72
			c0-9-13.56-10.07-13.56-23.73c0-19.77,10.94-31.48,29.55-31.48c19.08,0,31.97,12.34,31.97,31.48c0,12.71-7.27,15.14-7.27,24.7
			c0,2.97-0.36,7.75,8.72,7.75h75.51c1.34,0,2.42-1.08,2.42-2.42v-55.94c0-4.98-5.67-8.23-8.72-8.23c-9,0-10.07,13.56-23.73,13.56
			c-19.77,0-31.48-10.94-31.48-29.55C2819.69,3794.5,2832.03,3781.62,2851.17,3781.62z"/>
	</g>
</g>
<g>
	<g id="Layer_2_00000072239615178171276430000009344658939534504103_">
		<path class="st0" d="M2609.17,3975.62c12.71,0,15.14,7.27,24.7,7.27c2.97,0,7.75,0.36,7.75-8.72v-75.32
			c0-1.34-1.08-2.42-2.42-2.42h-80.84c-4.98,0-8.23,5.67-8.23,8.72c0,9,13.56,10.07,13.56,23.73c0,19.77-10.94,31.48-29.55,31.48
			c-19.08,0-31.97-12.34-31.97-31.48c0-12.71,7.27-15.14,7.27-24.7c0-2.97,0.36-7.75-8.72-7.75h-98.86c-1.34,0-2.42,1.08-2.42,2.42
			v80.65c0,4.98,5.67,8.23,8.72,8.23c9,0,10.07-13.56,23.73-13.56c19.77,0,31.48,10.94,31.48,29.55c0,19.08-12.34,31.97-31.48,31.97
			c-12.71,0-15.14-7.27-24.7-7.27c-2.97,0-7.75-0.36-7.75,8.72v50.62c0,1.34,1.08,2.42,2.42,2.42h104.19c4.98,0,8.23-5.67,8.23-8.72
			c0-9-13.56-10.07-13.56-23.73c0-19.77,10.94-31.48,29.55-31.48c19.08,0,31.97,12.34,31.97,31.48c0,12.71-7.27,15.14-7.27,24.7
			c0,2.97-0.36,7.75,8.72,7.75h75.51c1.34,0,2.42-1.08,2.42-2.42v-55.94c0-4.98-5.67-8.23-8.72-8.23c-9,0-10.07,13.56-23.73,13.56
			c-19.77,0-31.48-10.94-31.48-29.55C2577.69,3988.5,2590.03,3975.62,2609.17,3975.62z"/>
	</g>
</g>
<g>
	<g id="Layer_2_00000171692569311568194540000004533629243131062703_">
		<path class="st0" d="M2367.17,4169.62c12.71,0,15.14,7.27,24.7,7.27c2.97,0,7.75,0.36,7.75-8.72v-75.32
			c0-1.34-1.08-2.42-2.42-2.42h-80.84c-4.98,0-8.23,5.67-8.23,8.72c0,9,13.56,10.06,13.56,23.73c0,19.77-10.94,31.48-29.55,31.48
			c-19.08,0-31.97-12.34-31.97-31.48c0-12.71,7.27-15.14,7.27-24.7c0-2.97,0.36-7.75-8.72-7.75h-98.86c-1.34,0-2.42,1.08-2.42,2.42
			v80.65c0,4.98,5.67,8.23,8.72,8.23c9,0,10.07-13.56,23.73-13.56c19.77,0,31.48,10.94,31.48,29.55c0,19.08-12.34,31.97-31.48,31.97
			c-12.71,0-15.14-7.27-24.7-7.27c-2.97,0-7.75-0.36-7.75,8.72v50.62c0,1.34,1.08,2.42,2.42,2.42h104.19c4.98,0,8.23-5.67,8.23-8.72
			c0-9-13.56-10.06-13.56-23.73c0-19.77,10.94-31.48,29.55-31.48c19.08,0,31.97,12.34,31.97,31.48c0,12.71-7.27,15.14-7.27,24.7
			c0,2.97-0.36,7.75,8.72,7.75h75.51c1.34,0,2.42-1.08,2.42-2.42v-55.94c0-4.98-5.67-8.23-8.72-8.23c-9,0-10.07,13.56-23.73,13.56
			c-19.77,0-31.48-10.94-31.48-29.55C2335.69,4182.5,2348.03,4169.62,2367.17,4169.62z"/>
	</g>
</g>
</svg>
